
        <svg xmlns="http://www.w3.org/2000/svg" xmlns:xlink="http://www.w3.org/1999/xlink" version="1.1" width="3162.064825930372" 
        height="889.801263603063" viewBox="0 0 3162.064825930372 889.801263603063">
			<rect fill="#000000" width="3162.064825930372" height="889.801263603063"/>
			<g transform="scale(8.103241296518608) translate(10, 10)">
				<defs id="SvgjsDefs1354"></defs><g id="SvgjsG1355" featureKey="tOsHRK-0" transform="matrix(0.9978674054145813,0,0,0.9978674054145813,-11.0044816939384,-4.989337058282729)" fill="#6186a9"><g xmlns="http://www.w3.org/2000/svg"><path d="M87.579,26.695L51.387,5.803L49.994,5l-1.393,0.803L12.421,26.695L11.028,27.5v1.608v41.784V72.5l1.393,0.805   l36.181,20.892L49.994,95l1.393-0.803l36.192-20.892l1.393-0.805v-1.608V29.108V27.5L87.579,26.695z M86.186,70.892L49.994,91.785   L13.813,70.892V29.108L49.994,8.215l36.191,20.893V70.892z"></path><path d="M45.911,15.713l-23.58,13.615c-0.405-0.131-0.832-0.22-1.281-0.22c-2.307,0-4.179,1.872-4.179,4.178   c0,1.232,0.544,2.329,1.394,3.093v27.089c-0.85,0.765-1.394,1.861-1.394,3.093c0,2.307,1.872,4.178,4.179,4.178   c0.387,0,0.754-0.07,1.11-0.168l23.751,13.716c0.397,1.894,2.075,3.319,4.089,3.319c2.016,0,3.696-1.428,4.091-3.327l23.575-13.607   c0.405,0.131,0.832,0.22,1.281,0.22c2.307,0,4.178-1.872,4.178-4.178c0-1.232-0.544-2.329-1.393-3.093V36.379   c0.849-0.765,1.393-1.861,1.393-3.093c0-2.307-1.871-4.178-4.178-4.178c-0.449,0-0.876,0.089-1.281,0.22L54.091,15.721   c-0.395-1.898-2.075-3.327-4.091-3.327C47.986,12.394,46.309,13.819,45.911,15.713z M75.343,68.795L53.602,81.344   c-0.128-0.22-0.274-0.424-0.44-0.617L63.65,62.557c0.267,0.054,0.541,0.084,0.824,0.084c1.069,0,2.035-0.414,2.775-1.075   l7.595,4.385c-0.046,0.248-0.076,0.5-0.076,0.762C74.769,67.476,74.989,68.18,75.343,68.795z M25.166,65.944l7.663-4.423   c0.724,0.607,1.646,0.988,2.666,0.988c0.264,0,0.52-0.03,0.772-0.079L46.83,80.732c-0.163,0.193-0.307,0.397-0.435,0.617   L24.589,68.76c0.4-0.642,0.64-1.39,0.64-2.198C25.229,66.349,25.195,66.148,25.166,65.944z M48.602,20.492l0.003,8.871   c-1.181,0.422-2.108,1.35-2.527,2.53H24.973c-0.087-0.242-0.193-0.471-0.318-0.688l21.741-12.554   C46.888,19.502,47.663,20.158,48.602,20.492z M73.751,34.679L52.698,46.833c-0.384-0.327-0.821-0.585-1.306-0.756l-0.003-8.868   c1.184-0.419,2.111-1.349,2.533-2.53H73.751z M61.271,61.115l-9.884,17.117l0.006-24.309c0.484-0.171,0.922-0.43,1.306-0.756   l7.688,4.437c-0.057,0.277-0.09,0.566-0.09,0.859C60.296,59.475,60.672,60.392,61.271,61.115z M39.6,57.611l7.701-4.445   c0.384,0.327,0.822,0.582,1.307,0.756l-0.006,24.309L38.667,61.02c0.617-0.729,1.007-1.659,1.007-2.69   C39.674,58.085,39.641,57.846,39.6,57.611z M46.077,34.679c0.419,1.181,1.347,2.108,2.527,2.53l0.003,8.868   c-0.484,0.174-0.923,0.43-1.307,0.756L26.246,34.679H46.077z M45.897,49.238c-0.046,0.248-0.076,0.5-0.076,0.762   s0.03,0.514,0.076,0.762l-7.671,4.429c-0.735-0.639-1.682-1.039-2.731-1.039c-0.256,0-0.506,0.03-0.751,0.076l-9.892-17.138   L45.897,49.238z M65.174,54.355c-0.229-0.038-0.46-0.071-0.699-0.071c-0.998,0-1.904,0.364-2.622,0.952l-7.751-4.475   c0.047-0.248,0.076-0.5,0.076-0.762s-0.029-0.514-0.076-0.762l21.042-12.149L65.174,54.355z M75.024,31.894H53.923   c-0.422-1.184-1.35-2.111-2.533-2.53l-0.003-8.868c0.941-0.332,1.72-0.987,2.215-1.839l21.741,12.549   C75.218,31.425,75.111,31.651,75.024,31.894z M21.05,37.465c0.261,0,0.515-0.03,0.762-0.076l10.525,18.234   c-0.629,0.731-1.021,1.667-1.021,2.707c0,0.275,0.03,0.544,0.082,0.803l-7.541,4.353c-0.743-0.677-1.723-1.102-2.808-1.102V37.465z    M78.947,62.535c-1.034,0-1.97,0.389-2.699,1.012l-7.663-4.423c0.035-0.218,0.068-0.435,0.068-0.661   c0-1.055-0.405-2.01-1.053-2.745l10.585-18.33c0.247,0.046,0.5,0.076,0.762,0.076V62.535z"></path></g></g><g id="SvgjsG1356" featureKey="dVtZHI-0" transform="matrix(2.5468759536743164,0,0,2.5468759536743164,95.38868921131227,12.027039540889072)" fill="#ffffff"><path d="M8.0566 20.18555 c-4.0039 0 -7.0313 -2.7441 -7.0313 -7.1582 c0 -4.4043 3.0273 -7.1484 7.0313 -7.1484 c3.9941 0 7.0215 2.7441 7.0215 7.1484 c0 4.4141 -3.0273 7.1582 -7.0215 7.1582 z M8.0566 18.0176 c2.6367 0 4.6973 -1.8262 4.6973 -4.9902 c0 -3.1348 -2.0605 -4.9707 -4.6973 -4.9707 s-4.6973 1.8359 -4.6973 4.9707 c0 3.1641 2.0605 4.9902 4.6973 4.9902 z M33.46728125 20 l-2.3145 0 l-0.91797 -10.996 l-3.9941 10.996 l-1.4648 0 l-3.9746 -10.977 l-0.92773 10.977 l-2.3242 0 l1.1133 -13.926 l3.252 0 l3.584 9.8438 l3.6133 -9.8438 l3.252 0 z M46.32834375 6.074 l2.334 0 l0 13.926 l-2.6172 0 l-6.8359 -10.625 l0 10.625 l-2.3145 0 l0 -13.926 l2.5879 0 l6.8457 10.557 l0 -10.557 z M52.646496875 20 l0 -13.926 l2.334 0 l0 13.926 l-2.334 0 z M67.68565625 6.074 l2.4805 0 l-5.1367 13.926 l-2.5098 0 l-5.1074 -13.926 l2.4707 0 l3.9063 11.123 z M72.59766875 20 l0 -13.926 l2.334 0 l0 13.926 l-2.334 0 z M86.689428125 8.154 l-5.4102 0 l0 3.8574 l4.7852 0 l0 2.0605 l-4.7852 0 l0 3.8379 l5.4102 0 l0 2.0898 l-7.7734 0 l0 -13.926 l7.7734 0 l0 2.0801 z M92.246059375 20 l-3.8086 -13.926 l2.4316 0 l3.0078 11.006 l3.291 -11.006 l2.0117 0 l3.2813 11.006 l3.0273 -11.006 l2.4219 0 l-3.8086 13.926 l-2.9102 0 l-3.0176 -9.6484 l-3.0176 9.6484 l-2.9102 0 z"></path></g>
			</g>
		</svg>
	